HIERARCHY
ROOT ui
{
	 OFFSET 0 0 0
	 CHANNELS 3 XPosition YPosition Z Position
	 EndSite
	 {
	 OFFSET 0 -1 0
	 }
}
ROOT li
{
	 OFFSET 0 0 0
	 CHANNELS 3 XPosition YPosition Z Position
	 EndSite
	 {
	 OFFSET 0 -1 0
	 }
}
ROOT ul
{
	 OFFSET 0 0 0
	 CHANNELS 3 XPosition YPosition Z Position
	 EndSite
	 {
	 OFFSET 0 -1 0
	 }
}
ROOT ll
{
	 OFFSET 0 0 0
	 CHANNELS 3 XPosition YPosition Z Position
	 EndSite
	 {
	 OFFSET 0 -1 0
	 }
}
ROOT tt
{
	 OFFSET 0 0 0
	 CHANNELS 3 XPosition YPosition Z Position
	 EndSite
	 {
	 OFFSET 0 -1 0
	 }
}
ROOT tb
{
	 OFFSET 0 0 0
	 CHANNELS 3 XPosition YPosition Z Position
	 EndSite
	 {
	 OFFSET 0 -1 0
	 }
}
ROOT td
{
	 OFFSET 0 0 0
	 CHANNELS 3 XPosition YPosition Z Position
	 EndSite
	 {
	 OFFSET 0 -1 0
	 }
}
ROOT v
{
	 OFFSET 0 0 0
	 CHANNELS 3 XPosition YPosition Z Position
	 EndSite
	 {
	 OFFSET 0 -1 0
	 }
}
ROOT bn
{
	 OFFSET 0 0 0
	 CHANNELS 3 XPosition YPosition Z Position
	 EndSite
	 {
	 OFFSET 0 -1 0
	 }
}
MOTION
Frames: 32
Frame Time: 0.002
-0.0031320838928222657	0.0012281060218811036	0		0.47891146850585936	-2.334823974609375	0		-1.076346435546875	0.05454795455932617	0		-0.6515306396484375	-2.571521240234375	0		1.52500244140625	-0.6163688354492187	0		3.189135009765625	-0.06822418975830079	0		4.61359375	0.11117341613769531	0		5.6593447265625	0.132449951171875	0		-0.25298294067382815	5.90267919921875	0		
0.035581871032714846	-0.013622504234313965	0		0.5007068786621094	-2.339390380859375	0		-1.08426171875	0.06058856964111328	0		-0.6556871948242188	-2.572570068359375	0		1.5081495361328126	-0.6052799682617187	0		3.17816064453125	-0.06531468200683593	0		4.60159130859375	0.11203926849365234	0		5.65443115234375	0.14582861328125	0		-0.2547348175048828	5.90357666015625	0		
0.008574668884277343	-0.01228969383239746	0		0.4835221252441406	-2.342258544921875	0		-1.07223583984375	0.06326573181152344	0		-0.644941162109375	-2.578892578125	0		1.504021728515625	-0.6094277954101562	0		3.19583642578125	-0.08193273162841797	0		4.60443994140625	0.10462758636474609	0		5.65299169921875	0.14692723083496093	0		-0.22716184997558594	5.92194287109375	0		
0.03464126205444336	-0.008932231903076172	0		0.4616191711425781	-2.331053466796875	0		-1.070143798828125	0.06810646057128907	0		-0.6768711547851562	-2.568455322265625	0		1.507137939453125	-0.6017210083007812	0		3.184449951171875	-0.04803408050537109	0		4.594826171875	0.1254290542602539	0		5.654529296875	0.16170758056640624	0		-0.22887936401367187	5.9228193359375	0		
0.010787123680114747	-0.003695110082626343	0		0.5114862365722657	-2.336178466796875	0		-0.9971013793945313	0.06663084411621094	0		-0.6439755249023438	-2.571221435546875	0		1.50518115234375	-0.6009483642578125	0		3.1771005859375	-0.07024118041992188	0		4.60568115234375	0.11383047485351562	0		5.65019140625	0.14902174377441407	0		-0.23149191284179688	5.9266865234375	0		
0.030851985931396483	-0.0072901020050048825	0		0.470641845703125	-2.328685791015625	0		-1.0839063720703126	0.07102767181396484	0		-0.660852294921875	-2.565115478515625	0		1.51227685546875	-0.6013720703125	0		3.158478759765625	-0.05626641845703125	0		4.59382958984375	0.1146177215576172	0		5.64886083984375	0.14999771118164062	0		-0.2614703369140625	5.907015625	0		
-8.251389861106872E-4	-9.791569709777831E-4	0		0.4926749572753906	-2.333377685546875	0		-1.079768798828125	0.06673019409179687	0		-0.663770263671875	-2.566303466796875	0		1.493298583984375	-0.610358642578125	0		3.1884423828125	-0.07021654510498047	0		4.59206103515625	0.11518875885009766	0		5.64759228515625	0.15091598510742188	0		-0.26203021240234375	5.90577392578125	0		
-6.499119997024536E-4	-0.008294035911560058	0		0.44785418701171875	-2.33489013671875	0		-1.07737158203125	0.07142066955566406	0		-0.6547193603515625	-2.574755859375	0		1.4946683349609375	-0.6057546997070312	0		3.165131103515625	-0.049226898193359375	0		4.5903876953125	0.1157220230102539	0		5.646390625	0.151771484375	0		-0.2351063690185547	5.9259892578125	0		
0.025824460983276367	-0.00513630199432373	0		0.5021601867675781	-2.336262451171875	0		-1.0789444580078125	0.07213412475585937	0		-0.6533220825195313	-2.570114501953125	0		1.4751639404296875	-0.5998118896484375	0		3.1791474609375	-0.07096782684326172	0		4.60366748046875	0.1079417495727539	0		5.6482197265625	0.16627200317382812	0		-0.23643357849121094	5.927669921875	0		
-0.0055465660095214845	0.001033601999282837	0		0.43887457275390623	-2.320523681640625	0		-1.0804095458984375	0.07279413604736328	0		-0.6657167358398437	-2.56026953125	0		1.49465234375	-0.6006310424804687	0		3.171045654296875	-0.050338493347167966	0		4.58735302734375	0.11666793060302734	0		5.65062939453125	0.1529976806640625	0		-0.2650839538574219	5.906798828125	0		
-0.0019959139823913573	-0.003489428997039795	0		0.4862463684082031	-2.330870849609375	0		-1.0876705322265625	0.07850862884521484	0		-0.67023388671875	-2.563622802734375	0		1.4902021484375	-0.6040582885742187	0		3.1864453125	-0.06318962860107422	0		4.5959990234375	0.11689503479003906	0		5.64965869140625	0.15365223693847657	0		-0.267219970703125	5.90839404296875	0		
-0.00629349422454834	-0.005918848991394043	0		0.43204995727539064	-2.323395263671875	0		-1.0870770263671874	0.07002222442626953	0		-0.6735938110351563	-2.5650498046875	0		1.50279052734375	-0.6118472900390625	0		3.164351806640625	-0.05438943481445312	0		4.58476171875	0.11744937133789063	0		5.64876904296875	0.154240478515625	0		-0.2398941192626953	5.9293974609375	0		
-0.007419283866882324	-0.005457194805145263	0		0.49053387451171876	-2.34105126953125	0		-1.08412744140625	0.07444016265869141	0		-0.6988992919921875	-2.570125	0		1.4668197021484375	-0.6017838745117188	0		3.1798154296875	-0.07632842254638672	0		4.58849072265625	0.10968907928466796	0		5.64450244140625	0.1687625732421875	0		-0.2398876953125	5.92784765625	0		
-0.005368471145629883	-0.0021035490036010744	0		0.44371881103515626	-2.326805908203125	0		-1.080074951171875	0.07778410339355468	0		-0.6599197998046875	-2.56743798828125	0		1.489851806640625	-0.59885595703125	0		3.184400390625	-0.04409748840332031	0		4.59471044921875	0.12185075378417969	0		5.6501884765625	0.16721044921875	0		-0.2265589599609375	5.93800244140625	0		
0.07177763366699219	-0.0011882020235061646	0		0.49672509765625	-2.330455078125	0		-1.00696337890625	0.07679759216308593	0		-0.6716854858398438	-2.557861572265625	0		1.4910162353515626	-0.595566650390625	0		3.1672099609375	-0.060508968353271485	0		4.581763671875	0.11833183288574219	0		5.64019775390625	0.15592924499511718	0		-0.24245086669921875	5.930646484375	0		
-0.011901883125305176	0.003661104917526245	0		0.4570495300292969	-2.323429931640625	0		-1.0117847290039061	0.07320437622070312	0		-0.6426552124023438	-2.56709033203125	0		1.5020311279296874	-0.6075023193359375	0		3.160590087890625	-0.053146026611328126	0		4.5810166015625	0.11855799865722656	0		5.64313427734375	0.14402113342285155	0		-0.27049102783203127	5.90946826171875	0		
0.014319826126098632	-0.0045689640045166015	0		0.48708505249023437	-2.339740234375	0		-1.09328369140625	0.08099117279052734	0		-0.678259765625	-2.563162109375	0		1.475549072265625	-0.5987761840820313	0		3.165833251953125	-0.060037296295166014	0		4.58039306640625	0.11875418090820312	0		5.63921337890625	0.15660255432128906	0		-0.2720034484863281	5.910759765625	0		
-0.008130205154418946	-9.326239824295044E-4	0		0.4367021789550781	-2.33059130859375	0		-1.0878858642578124	0.07612361145019532	0		-0.678802734375	-2.5629248046875	0		1.4809007568359376	-0.6056769409179688	0		3.18046875	-0.05212979125976563	0		4.57988525390625	0.11892302703857421	0		5.6388486328125	0.15687315368652344	0		-0.2440692596435547	5.93046875	0		
0.0115560302734375	0.0038866729736328127	0		0.43831195068359374	-2.328441650390625	0		-1.0832333984375	0.07923289489746094	0		-0.735203857421875	-2.560686279296875	0		1.4656611328125	-0.5962235107421875	0		3.149921630859375	-0.059412246704101564	0		4.58670458984375	0.13093560791015624	0		5.6415185546875	0.17081565856933595	0		-0.2444117431640625	5.9306630859375	0		
-0.005766633033752441	0.0033604249954223633	0		0.46394589233398437	-2.330769775390625	0		-1.0835399169921875	0.07939877319335938	0		-0.6666905517578126	-2.5698037109375	0		1.483253662109375	-0.6014102172851562	0		3.188718994140625	-0.05400359344482422	0		4.58917529296875	0.11900554656982422	0		5.6447578125	0.15701895141601563	0		-0.2720600891113281	5.910328125	0		
0.015933470726013185	-9.206690192222596E-4	0		0.45282650756835935	-2.324441650390625	0		-1.088816162109375	0.0766243896484375	0		-0.6797921752929688	-2.56243310546875	0		1.4799552001953125	-0.6052337646484375	0		3.1643896484375	-0.05944453811645508	0		4.57895556640625	0.1192967529296875	0		5.64460009765625	0.1571934356689453	0		-0.27225390625	5.9104560546875	0		
-0.009210468292236328	-3.57219010591507E-4	0		0.4765765686035156	-2.329788818359375	0		-1.01990185546875	0.07944217681884766	0		-0.6819822998046875	-2.56429541015625	0		1.47675048828125	-0.6080816040039062	0		3.155280029296875	-0.057185062408447264	0		4.58880615234375	0.11920062255859375	0		5.64449365234375	0.1573453826904297	0		-0.2450048065185547	5.93105029296875	0		
-0.012352749824523926	-0.003227998971939087	0		0.4354800109863281	-2.329953369140625	0		-1.0890513916015625	0.07679738616943359	0		-0.671236328125	-2.573426025390625	0		1.47971923828125	-0.6050636596679687	0		3.15402587890625	-0.06608928680419922	0		4.57357275390625	0.11155764770507813	0		5.64097265625	0.17147813415527344	0		-0.24411564636230468	5.9301044921875	0		
-0.009334760665893555	-2.3458300530910492E-4	0		0.4914232177734375	-2.3319423828125	0		-1.0840340576171874	0.07974960327148438	0		-0.6641165161132813	-2.56551025390625	0		1.4648541259765624	-0.595731201171875	0		3.19131689453125	-0.04871840667724609	0		4.58590478515625	0.13139805603027344	0		5.6473505859375	0.16958096313476562	0		-0.22999168395996095	5.9398916015625	0		
-0.006257688045501709	0.003738372087478638	0		0.44159906005859373	-2.322982421875	0		-1.08403125	0.07977191925048828	0		-0.6651333618164063	-2.567466064453125	0		1.5058170166015625	-0.5984534301757812	0		3.143273193359375	-0.05077584838867188	0		4.578685546875	0.1195897216796875	0		5.64440869140625	0.1577155303955078	0		-0.24519203186035157	5.93119970703125	0		
-0.009294568061828613	-1.932249963283539E-4	0		0.48742654418945314	-2.335818115234375	0		-1.0890499267578124	0.07686738586425781	0		-0.6799774780273438	-2.5621826171875	0		1.4797340087890625	-0.604943603515625	0		3.155197021484375	-0.056956695556640624	0		4.5887197265625	0.11945814514160157	0		5.64149072265625	0.14584490966796876	0		-0.24520956420898438	5.93120947265625	0		
-0.009228867530822754	-1.959660053253174E-4	0		0.4257894287109375	-2.320667236328125	0		-1.088985107421875	0.076852294921875	0		-0.6819192504882813	-2.564155517578125	0		1.4967294921875	-0.6092440185546875	0		3.143376708984375	-0.050701610565185545	0		4.57878564453125	0.11969355773925781	0		5.63806591796875	0.1582183074951172	0		-0.27259671020507814	5.91070849609375	0		
0.012803182601928711	-0.003618316888809204	0		0.48558624267578127	-2.3387861328125	0		-1.0888946533203125	0.07682297515869141	0		-0.67096240234375	-2.5733818359375	0		1.45892822265625	-0.6035352172851562	0		3.17461181640625	-0.04325075912475586	0		4.57887548828125	0.11973968505859375	0		5.6381328125	0.15832000732421875	0		-0.24519921875	5.931185546875	0		
-0.009022339820861817	-2.3534399271011352E-4	0		0.4399846496582031	-2.324953125	0		-1.08372607421875	0.07968942260742187	0		-0.66673583984375	-2.569490966796875	0		1.503081787109375	-0.6023534545898438	0		3.149435546875	-0.058762176513671875	0		4.57898876953125	0.11978311920166015	0		5.6382158203125	0.15841950988769532	0		-0.245171875	5.93115771484375	0		
0.011203232765197755	0.004362685203552246	0		0.482206298828125	-2.3227548828125	0		-1.0835908203125	0.07964149475097657	0		-0.6773901977539063	-2.560330078125	0		1.462271728515625	-0.5996017456054688	0		3.18867724609375	-0.053465957641601565	0		4.579123046875	0.11982495880126953	0		5.6383154296875	0.15851797485351563	0		-0.27251358032226564	5.91062646484375	0		
-0.008730690002441406	-3.005790114402771E-4	0		0.4362596740722656	-2.329928955078125	0		-1.08343701171875	0.07958943176269531	0		-0.68126611328125	-2.56430078125	0		1.497264404296875	-0.6092576293945312	0		3.15885693359375	-0.05189292526245117	0		4.5792763671875	0.11986624908447266	0		5.644845703125	0.1583285675048828	0		-0.2734371337890625	5.9116064453125	0		
0.013381123542785645	-0.003741633892059326	0		0.477481201171875	-2.32971435546875	0		-1.0883218994140624	0.0766292724609375	0		-0.6810521240234375	-2.56434716796875	0		1.477467529296875	-0.6078980712890625	0		3.15593701171875	-0.05681861114501953	0		4.5794453125	0.11990807342529297	0		5.63855126953125	0.15871644592285156	0		-0.27336520385742186	5.91156689453125	0		
